<svg width="24" height="24" viewBox="0 0 24 24" fill="none" xmlns="http://www.w3.org/2000/svg">
<rect width="24" height="24" fill="#E5E5E5"/>
<g clip-path="url(#clip0_1434_1320)">
<rect width="1680" height="1050" transform="translate(-1488 -83)" fill="white"/>
<g filter="url(#filter0_d_1434_1320)">
<rect x="-1492" y="-33" width="1680" height="94" fill="white"/>
</g>
<path d="M8.91429 0C11.2785 0 13.5459 0.939181 15.2176 2.61093C16.8894 4.28269 17.8286 6.55007 17.8286 8.91429C17.8286 11.1223 17.0194 13.152 15.6891 14.7154L16.0594 15.0857H17.1429L24 21.9429L21.9429 24L15.0857 17.1429V16.0594L14.7154 15.6891C13.0979 17.0699 11.041 17.8284 8.91429 17.8286C6.55007 17.8286 4.28269 16.8894 2.61093 15.2176C0.939181 13.5459 0 11.2785 0 8.91429C0 6.55007 0.939181 4.28269 2.61093 2.61093C4.28269 0.939181 6.55007 0 8.91429 0ZM8.91429 2.74286C5.48571 2.74286 2.74286 5.48571 2.74286 8.91429C2.74286 12.3429 5.48571 15.0857 8.91429 15.0857C12.3429 15.0857 15.0857 12.3429 15.0857 8.91429C15.0857 5.48571 12.3429 2.74286 8.91429 2.74286Z" fill="black"/>
</g>
<defs>
<filter id="filter0_d_1434_1320" x="-1492" y="-33" width="1680" height="95" filterUnits="userSpaceOnUse" color-interpolation-filters="sRGB">
<feFlood flood-opacity="0" result="BackgroundImageFix"/>
<feColorMatrix in="SourceAlpha" type="matrix" values="0 0 0 0 0 0 0 0 0 0 0 0 0 0 0 0 0 0 127 0" result="hardAlpha"/>
<feOffset dy="1"/>
<feColorMatrix type="matrix" values="0 0 0 0 0 0 0 0 0 0 0 0 0 0 0 0 0 0 0.02 0"/>
<feBlend mode="normal" in2="BackgroundImageFix" result="effect1_dropShadow_1434_1320"/>
<feBlend mode="normal" in="SourceGraphic" in2="effect1_dropShadow_1434_1320" result="shape"/>
</filter>
<clipPath id="clip0_1434_1320">
<rect width="1680" height="1050" fill="white" transform="translate(-1488 -83)"/>
</clipPath>
</defs>
</svg>
